<?xml version="1.0" encoding="UTF-8"?>
<svg width="599px" height="327px" viewBox="0 0 599 327" version="1.1" xmlns="http://www.w3.org/2000/svg" xmlns:xlink="http://www.w3.org/1999/xlink">
    <!-- Generator: Sketch 48.2 (47327) - http://www.bohemiancoding.com/sketch -->
    <title>Group 2</title>
    <desc>Created with Sketch.</desc>
    <defs></defs>
    <g id="pyrusLogo-Copy-2" stroke="none" stroke-width="1" fill="none" fill-rule="evenodd" transform="translate(-91.000000, -63.000000)">
        <g id="Group-2" transform="translate(91.000000, 63.000000)">
            <g id="Group">
                <path d="M104.571478,326.030803 C135.706452,326.030803 167.099213,305.52464 185.537241,279.299155 C199.283943,259.746417 204.426376,237.444888 204.426376,215.78151 C204.426376,165.06171 161.888308,144.31493 149.039313,110.23019 C133.344794,68.5970801 129.968693,33.1977916 93.1326131,27.5410131 C91.5609583,27.2996599 94.8860455,21.0449868 97.8205341,14.6694009 C101.197632,7.33218326 102.441094,1.85100025 95.392229,0.0260617878 C88.9345533,-0.270333436 84.584856,1.95516923 81.8722112,7.02172739 C77.5473898,15.0994379 77.2143937,26.9632258 76.0187965,27.107067 C34.4646964,32.1064046 33.3425545,85.9982943 23.6985818,142.519369 C18.9789747,170.179886 -2.14977026,182.567623 0.178538458,232.936083 C1.4625698,251.351612 9.88614688,275.743283 26.7685186,293.443916 C46.0530537,313.663143 75.5925904,326.030803 104.571478,326.030803 Z" id="Oval-Copy" fill="#00396E"></path>
                <path d="M104.191866,316 C133.129643,316 162.307016,296.899377 179.443872,272.471448 C192.220469,254.2589 197,233.48597 197,213.30745 C197,166.064103 157.463845,146.739356 145.521604,114.990863 C130.934647,76.2113825 127.796798,43.2384434 93.5602415,37.9693936 C92.751904,37.8449894 88.4946551,37.0939199 84.4977694,37.0060899 C81.2719006,36.9352027 78.1504487,37.5053514 77.6541474,37.5651912 C39.0325216,42.2218626 37.9895693,92.419877 29.0261721,145.066866 C24.6396278,170.831467 5.0019391,182.37012 7.16593899,229.286208 C8.3593562,246.439495 16.1884812,269.159303 31.8794633,285.646695 C49.8030882,304.480048 77.2580188,316 104.191866,316 Z" id="Oval-Copy" fill="#06427A"></path>
                <path d="M104.099577,311 C131.818921,311 159.767774,292.652448 176.183077,269.187628 C188.421712,251.693137 193,231.739211 193,212.35626 C193,166.975554 155.128525,148.412714 143.689115,117.915954 C129.716346,80.665414 126.710617,48.9924833 93.9155998,43.9311738 C93.1412975,43.8116744 89.0633012,43.0902169 85.2347054,43.0058498 C82.1446627,42.9377574 79.1546404,43.4854271 78.679236,43.5429077 C41.6837839,48.0159827 40.6847454,96.234864 32.0987543,146.806165 C27.8969067,171.554957 9.08606798,182.638681 11.1589521,227.705032 C12.3021201,244.182023 19.8015977,266.006069 34.831907,281.84342 C52.0008529,299.93424 78.2997864,311 104.099577,311 Z" id="Oval-Copy" fill="#0F4E89"></path>
                <path d="M104.495751,305 C130.844359,305 157.411125,287.542441 173.014683,265.21584 C184.648111,248.569962 189,229.583951 189,211.141217 C189,167.961814 153.00129,150.299411 142.127566,121.281971 C128.845758,85.8383604 125.988663,55.7018031 94.8153778,50.8860049 C94.0793652,50.7723022 90.203028,50.0858407 86.5637584,50.005566 C83.62652,49.9407767 80.784356,50.4618803 80.3324606,50.5165726 C45.1664539,54.7726701 44.2168184,100.652576 36.0554093,148.770792 C32.0613453,172.319082 14.180713,182.865163 16.1510918,225.745459 C17.2377296,241.423194 24.3663539,262.18861 38.6534061,277.257732 C54.9733382,294.471012 79.971775,305 104.495751,305 Z" id="Oval-Copy" fill="#195A96"></path>
                <path d="M103.891926,298 C128.869797,298 154.054477,281.432434 168.846289,260.244052 C179.87451,244.446788 184,226.428691 184,208.926175 C184,167.948075 149.874056,151.186108 139.566016,123.647988 C126.975169,90.0113067 124.26671,61.411123 94.7151558,56.840836 C94.0174329,56.7329299 90.3427549,56.0814645 86.8928115,56.0052823 C84.1083774,55.9437959 81.4140715,56.4383335 80.9856852,56.4902376 C47.6491239,60.5293575 46.7488914,104.070288 39.0120643,149.735418 C35.225784,172.083208 18.275358,182.091645 20.1432316,222.785887 C21.173339,237.664364 27.9311101,257.371152 41.4749052,271.672043 C56.9458235,288.007784 80.6437636,298 103.891926,298 Z" id="Oval-Copy" fill="#2465A2"></path>
                <path d="M103.799637,292 C127.559075,292 151.515234,276.253967 165.585495,256.116247 C176.075753,241.102319 180,223.977681 180,207.343059 C180,168.39693 147.538736,152.466135 137.733528,126.293543 C125.756868,94.3247956 123.180529,67.1428028 95.0705141,62.7991417 C94.4068264,62.6965863 90.911401,62.077425 87.6297475,62.0050203 C84.9811395,61.9465829 82.4182632,62.4165979 82.0107737,62.4659283 C50.3003862,66.3047613 49.4440675,107.686637 42.0846466,151.087381 C38.4830629,172.327015 22.3594868,181.839167 24.1362446,220.515512 C25.116103,234.656214 31.5442266,253.385805 44.4273488,266.977562 C59.1435882,282.503266 81.6855312,292 103.799637,292 Z" id="Oval-Copy" fill="#3274B2"></path>
                <path d="M103.707348,287 C126.248354,287 148.975992,272.007038 162.3247,252.832427 C172.276997,238.536556 176,222.230922 176,206.391869 C176,169.308382 145.203416,154.139494 135.901039,129.218634 C124.538567,98.7788271 122.094348,72.8968427 95.4258723,68.7609219 C94.79622,68.6632713 91.4800471,68.073722 88.3666835,68.0047802 C85.8539015,67.9491376 83.4224548,68.3966737 83.0358622,68.4436447 C52.9516484,72.0988814 52.1392435,111.501624 45.1572288,152.82668 C41.7403417,173.050506 26.4436157,182.107728 28.1292577,218.934335 C29.0588669,232.398743 35.1573432,250.232571 47.3797925,263.174287 C61.3413529,277.957457 82.7272988,287 103.707348,287 Z" id="Oval-Copy" fill="#FFFFFF"></path>
            </g>
            <path d="M278.936,227.784 L278.936,268.52 L265,268.52 L265,164 L295.954,164 C311.632,164 329.454,169.226 329.454,194.552 L329.454,197.232 C329.454,222.692 311.632,227.784 295.954,227.784 L278.936,227.784 Z M278.936,215.59 L296.356,215.59 C304.396,215.59 315.25,212.642 315.25,196.83 L315.25,195.088 C315.25,179.276 304.396,176.328 296.356,176.328 L278.936,176.328 L278.936,215.59 Z M372.452,251.1 L390.408,197.5 L404.88,197.5 L379.554,265.438 L369.772,295.32 L354.094,295.32 L365.216,265.438 L340.024,197.5 L354.496,197.5 L372.452,251.1 Z M448.682,195.892 C449.486,195.892 450.424,196.026 450.692,196.026 L450.692,208.89 L448.28,208.89 C438.23,208.89 433.138,214.116 430.592,218.002 L430.592,268.52 L417.192,268.52 L417.192,217.6 L416.254,197.5 L427.778,197.5 L429.118,206.612 C433.138,200.582 439.57,195.892 448.682,195.892 Z M466.488,197.5 L479.888,197.5 L479.888,244.534 C479.888,253.378 484.578,258.336 493.154,258.336 C502.802,258.336 507.894,252.708 510.44,248.822 L510.44,197.5 L523.84,197.5 L523.84,248.42 L524.778,268.52 L513.12,268.52 L511.646,258.738 C507.358,265.17 499.854,270.128 488.196,270.128 C473.456,270.128 466.488,259.81 466.488,246.678 L466.488,197.5 Z M570.322,259.408 C580.238,259.408 585.196,254.986 585.196,248.42 C585.196,240.648 580.64,238.37 568.714,237.432 C549.284,235.69 542.718,229.66 542.718,218.136 L542.718,217.198 C542.718,203.53 553.572,195.892 570.322,195.892 C590.288,195.892 598.06,205.674 598.06,220.012 L598.06,220.548 L584.794,220.548 C584.794,211.972 581.176,206.612 570.322,206.612 C561.344,206.612 556.118,210.364 556.118,216.93 C556.118,223.362 559.066,226.578 571.93,227.65 C589.752,228.99 598.864,233.68 598.864,247.348 L598.864,248.152 C598.864,261.284 588.948,270.128 570.322,270.128 C549.954,270.128 541.914,259.006 541.914,247.08 L541.914,246.544 L555.18,246.544 C555.18,253.244 558.664,259.408 570.322,259.408 Z" id="Pyrus" fill="#00396E"></path>
        </g>
    </g>
</svg>